<svg width="94" height="14" viewBox="0 0 94 14" fill="none" xmlns="http://www.w3.org/2000/svg">
<path d="M8.68708 13.9986V8.40602H3.05726V13.9799H0V0.0917664H3.05726V5.5911H8.68708V0.0917664H11.7443V13.9799H8.68708V13.9986Z" fill="black"/>
<path d="M26.1574 14L24.8897 10.8868H19.0175L17.7499 14H14.6367L20.5835 0H23.3984L29.3451 14H26.1574ZM21.9443 3.67244L20.0988 8.18376H23.7898L21.9443 3.67244Z" fill="black"/>
<path d="M41.9608 13.9993L35.2312 5.1631V13.9993H32.2112V0.0925293H35.0447L41.5507 8.64912V0.0925293H44.5707V13.9807H41.9608V13.9993Z" fill="black"/>
<path d="M48.6367 13.9993V0.0925293H51.6567V8.64912L58.1627 0.0925293H60.9776V13.9807H57.9576V5.1631L51.2279 13.9993H48.6367Z" fill="black"/>
<path d="M75.3878 14L74.1202 10.8868H68.248L66.9804 14H63.8672L69.8139 0H72.6288L78.5756 14H75.3878ZM71.1748 3.67244L69.3292 8.18376H73.0203L71.1748 3.67244Z" fill="black"/>
<path d="M90.1521 13.9993V8.40678H84.5222V13.9807H81.465V0.0925293H84.5222V5.59186H90.1521V0.0925293H93.2093V13.9807H90.1521V13.9993Z" fill="black"/>
</svg>
